<?xml version="1.0" encoding="utf-8"?>
<!-- Generator: Adobe Illustrator 17.1.0, SVG Export Plug-In . SVG Version: 6.00 Build 0)  -->
<!DOCTYPE svg PUBLIC "-//W3C//DTD SVG 1.1//EN" "http://www.w3.org/Graphics/SVG/1.1/DTD/svg11.dtd">
<svg version="1.1" id="money-bag" xmlns="http://www.w3.org/2000/svg" xmlns:xlink="http://www.w3.org/1999/xlink" x="0px" y="0px"
	 viewBox="0 0 986.5604 1010" enable-background="new 0 0 986.5604 1010" xml:space="preserve">
<g>
	<g id="money-bag-money-bag">
		<g>
			<path fill="#5C524C" d="M888.3879,1010H98.2126c-43.4609,0-96.4717-38.8252-97.3681-84.3936
				c-0.6006-5.3808-1.7847-19.0097,0.5112-28.4423c33.6606-138.7315,252.8945-572.9312,262.2104-591.3394l5.0933-10.0786h449.2549
				l5.0928,10.0425c9.326,18.3369,228.541,450.6362,262.2021,589.3677c2.3125,9.4501,1.0938,28.3876,0.4473,36.081
				C985.7287,974.9404,933.4006,1010,888.3879,1010L888.3879,1010z M291.2639,332.4736
				C257.5857,399.6333,66.9646,782.5713,37.0432,905.8438c-0.5923,2.582-0.2783,10.9033,0.3852,16.3554l0.1338,2.2227
				c0,24.2462,35.2837,48.8506,60.6504,48.8506h790.1753c26.4688,0,60.6143-21.125,60.6143-43.5411
				c0.8779-11.5136,1.0752-22.9726,0.5019-26.039c-29.8954-123.1299-220.4716-504.3281-254.1678-571.2188H291.2639
				L291.2639,332.4736z"/>
		</g>
		<g>
			<path fill="none" d="M628.8225,328.5459"/>
		</g>
		<g>
			<path fill="#5C524C" d="M719.133,264.7036H267.4485c-10.1411,0-18.3628-8.2226-18.3628-18.3638
				c0-10.1411,8.2217-18.3637,18.3628-18.3637H719.133c10.1505,0,18.3643,8.2226,18.3643,18.3637
				C737.4973,256.481,729.2834,264.7036,719.133,264.7036L719.133,264.7036z"/>
		</g>
		<g>
			<g>
				<path fill="#5C524C" d="M493.3,874.5322c-10.1411,0-18.3628-8.213-18.3628-18.3633V449.6133
					c0-10.1416,8.2217-18.3638,18.3628-18.3638c10.1416,0,18.3633,8.2222,18.3633,18.3638v406.5556
					C511.6633,866.3193,503.4416,874.5322,493.3,874.5322L493.3,874.5322z"/>
			</g>
			<g>
				<path fill="#5C524C" d="M656.2414,532.9404L656.2414,532.9404l-325.9189-0.0175c-10.1411,0-18.3628-8.2325-18.3628-18.3643
					c0-10.1416,8.2217-18.3633,18.3628-18.3633l0,0l325.9189,0.0171c10.1329,0,18.3633,8.2227,18.3633,18.3647
					C674.6047,524.7266,666.3743,532.9404,656.2414,532.9404L656.2414,532.9404z"/>
			</g>
			<g>
				<path fill="#5C524C" d="M656.2414,668.4619H330.3225c-10.1411,0-18.3628-8.2324-18.3628-18.3642
					c0-10.1319,8.2217-18.3643,18.3628-18.3643h325.9189c10.1329,0,18.3633,8.2324,18.3633,18.3643
					C674.6047,660.2295,666.3743,668.4619,656.2414,668.4619L656.2414,668.4619z"/>
			</g>
			<g>
				<path fill="#5C524C" d="M656.2414,809.5781H330.3225c-10.1411,0-18.3628-8.2138-18.3628-18.3642
					c0-10.1494,8.2217-18.3633,18.3628-18.3633h325.9189c10.1329,0,18.3633,8.2139,18.3633,18.3633
					C674.6047,801.3643,666.3743,809.5781,656.2414,809.5781L656.2414,809.5781z"/>
			</g>
			<g>
				<path fill="#5C524C" d="M330.3225,659.6924c0,0,0,0-0.0088,0c-10.1416,0-18.354-8.2315-18.354-18.3633l0.0356-120.0996
					c0-10.1318,8.2217-18.354,18.3633-18.354c0,0,0,0,0.0093,0c10.1411,0,18.355,8.2309,18.355,18.3725l-0.0357,120.0811
					C348.6872,651.4785,340.4641,659.6924,330.3225,659.6924L330.3225,659.6924z"/>
			</g>
			<g>
				<path fill="#5C524C" d="M656.2414,808.8252c-10.1328,0-18.3642-8.2129-18.3642-18.3633V650.0977
					c0-10.1319,8.2314-18.3643,18.3642-18.3643c10.1329,0,18.3633,8.2324,18.3633,18.3643v140.3642
					C674.6047,800.6123,666.3743,808.8252,656.2414,808.8252L656.2414,808.8252z"/>
			</g>
		</g>
		<g>
			<g>
				<path fill="#5C524C" d="M495.1291,233.0601c-0.5996,0-1.2104-0.0264-1.8198-0.0894
					c-5.4253-0.5381-133.5845-13.8086-183.897-64.1113c-38.4575-38.5747-38.4575-101.314-0.0171-139.8701
					C328.0906,10.2842,352.9284,0,379.3518,0c26.4165,0,51.2544,10.2935,69.9316,28.9712
					c50.3565,50.3115,63.5821,178.4809,64.1201,183.9145c0.5381,5.4786-1.3984,10.9034-5.29,14.7945
					C504.6516,231.1416,499.9709,233.0601,495.1291,233.0601L495.1291,233.0601z M379.3518,36.7271
					c-16.6148,0-32.2251,6.4653-43.9717,18.2114c-24.165,24.2368-24.165,63.7168,0.0186,87.9712
					c27.9306,27.9311,96.3095,43.8022,138.3994,50.4463c-6.6353-42.0894-22.5069-110.46-50.4824-138.4087
					C411.5691,43.1924,395.9582,36.7271,379.3518,36.7271L379.3518,36.7271z"/>
			</g>
			<g>
				<path fill="#5C524C" d="M495.1291,233.0601c-4.8506,0-9.5224-1.9185-12.9834-5.3799
					c-3.8916-3.8911-5.8374-9.3252-5.2905-14.8042c0.5376-5.4331,13.8355-133.5933,64.1655-183.9048
					C559.6887,10.2935,584.5266,0,610.9602,0c26.415,0,51.2529,10.2935,69.9394,28.9712
					c38.4854,38.5742,38.4854,101.3135,0,139.8789c-50.3203,50.312-178.5166,63.5825-183.9502,64.1206
					C496.3401,233.0337,495.7297,233.0601,495.1291,233.0601L495.1291,233.0601z M610.9602,36.7271
					c-16.624,0-32.2442,6.4653-43.9717,18.2114c-27.959,27.9575-43.8652,96.3193-50.501,138.4175
					c42.1084-6.6441,110.4872-22.524,138.4268-50.4644c24.1933-24.2456,24.1933-63.7075-0.0186-87.9619
					C643.1682,43.1924,627.5667,36.7271,610.9602,36.7271L610.9602,36.7271z"/>
			</g>
		</g>
	</g>
</g>
</svg>
